<svg width="250" height="80" xmlns="http://www.w3.org/2000/svg">
 <g>
  <title>Layer 1</title>
  <text font-style="normal" font-weight="normal" xml:space="preserve" text-anchor="start" font-family="'Rounded Mplus 1c Black'" font-size="48" id="svg_1" y="758" x="67" stroke-width="0" stroke="#000" fill="#7f5625">呷麵起士</text>
  <path stroke="#000" id="svg_2" d="m25.86081,785.06778c-0.20471,-2.49433 0.39167,-5.08341 -0.60479,-7.51985c-1.62004,-5.35867 -5.20117,-10.06896 -6.81518,-15.41557c-0.69795,-3.58728 -1.8798,-7.42762 -0.48589,-10.98092c2.0157,-4.36547 5.34163,-8.34879 9.77931,-10.9876c2.48956,-1.46686 7.25582,0.38706 7.2668,-3.52487c0.78718,-4.46102 3.35434,-8.60508 6.62376,-12.01582c3.88162,-3.73502 10.425,-4.436 15.48783,-2.28899c2.86767,0.93195 5.85077,2.54579 6.48692,5.41007c-0.44342,2.82479 2.90356,4.78367 2.69746,7.37314c-3.03842,-0.00721 -5.95919,0.48144 -8.49741,2.13397c-1.78168,0.82975 -5.74721,1.29837 -2.8004,3.38776c2.7619,4.53144 2.69212,10.25218 0.0053,14.80552c-1.79056,3.54706 -4.08058,7.07674 -7.90424,9.18081c-2.9035,1.95328 -6.03576,3.6148 -9.27379,5.07905c-2.52666,2.38618 1.15757,5.82084 2.11019,8.29026c0.73102,0.75582 0.98296,2.31603 2.42453,1.94041c3.32115,0.05426 7.11802,-0.4123 9.77399,1.66778c-1.94315,1.76325 -5.62621,-0.30106 -8.26211,1.02482c-1.90775,1.22926 -4.14202,1.58793 -6.81461,1.61823c-2.87591,0.9184 -5.91686,-0.77158 -8.49242,0.35643c-0.89385,0.08804 -1.82148,0.72626 -2.70525,0.46537l0,0zm12.66376,-3.46106c-1.05213,-2.10851 -4.46257,0.33495 -1.32603,0.49714c0.50144,-0.10053 2.78386,0.64861 1.32603,-0.49714zm-3.87866,-0.92319c3.22209,-1.99322 1.6827,-5.43961 -0.38903,-7.60702c-0.70453,-0.63517 -1.02871,-1.90925 -1.98469,-2.12206c-1.46306,0 -2.92611,0 -4.38917,0c-1.01053,1.81296 -0.53973,3.81405 0.19384,5.64276c0.76279,2.32368 1.33912,6.10699 5.11946,4.91091c0.58243,-0.09818 1.06449,-0.44288 1.44959,-0.82459z" stroke-width="0" fill="#7f5625"/>
  <text stroke="#000" font-style="italic" font-weight="normal" xml:space="preserve" text-anchor="start" font-family="'Montserrat ExtraBold'" font-size="18" id="svg_3" y="782" x="67" stroke-width="0" fill="#7f5625">勾起你心中的餓</text>
  <text font-style="normal" font-weight="normal" xml:space="preserve" text-anchor="start" font-family="'Rounded Mplus 1c Black'" font-size="48" id="svg_40" y="44" x="55" stroke-width="0" stroke="#000" fill="#7f5625">呷麵起士</text>
  <path stroke="#000" id="svg_41" d="m13.86081,71.06778c-0.20471,-2.49433 0.39167,-5.08341 -0.60479,-7.51985c-1.62004,-5.35867 -5.20117,-10.06896 -6.81518,-15.41557c-0.69795,-3.58728 -1.8798,-7.42762 -0.48589,-10.98092c2.0157,-4.36547 5.34163,-8.34879 9.77931,-10.9876c2.48956,-1.46686 7.25582,0.38706 7.2668,-3.52487c0.78718,-4.46102 3.35434,-8.60508 6.62376,-12.01582c3.88162,-3.73502 10.425,-4.436 15.48783,-2.28899c2.86767,0.93195 5.85077,2.54579 6.48692,5.41007c-0.44342,2.82479 2.90356,4.78367 2.69746,7.37314c-3.03842,-0.00721 -5.95919,0.48144 -8.49741,2.13397c-1.78168,0.82975 -5.74721,1.29837 -2.8004,3.38776c2.7619,4.53144 2.69212,10.25218 0.0053,14.80552c-1.79056,3.54706 -4.08058,7.07674 -7.90424,9.18081c-2.9035,1.95328 -6.03576,3.6148 -9.27379,5.07905c-2.52666,2.38618 1.15757,5.82084 2.11019,8.29026c0.73102,0.75582 0.98296,2.31603 2.42453,1.94041c3.32115,0.05426 7.11802,-0.4123 9.77399,1.66778c-1.94315,1.76325 -5.62621,-0.30106 -8.26211,1.02482c-1.90775,1.22926 -4.14202,1.58793 -6.81461,1.61823c-2.87591,0.9184 -5.91686,-0.77158 -8.49242,0.35643c-0.89385,0.08804 -1.82148,0.72626 -2.70525,0.46537l0,0zm12.66376,-3.46106c-1.05213,-2.10851 -4.46257,0.33495 -1.32603,0.49714c0.50144,-0.10053 2.78386,0.64861 1.32603,-0.49714zm-3.87866,-0.92319c3.22209,-1.99322 1.6827,-5.43961 -0.38903,-7.60702c-0.70453,-0.63517 -1.02871,-1.90925 -1.98469,-2.12206c-1.46306,0 -2.92611,0 -4.38917,0c-1.01053,1.81296 -0.53973,3.81405 0.19384,5.64276c0.76279,2.32368 1.33912,6.10699 5.11946,4.91091c0.58243,-0.09818 1.06449,-0.44288 1.44959,-0.82459z" stroke-width="0" fill="#7f5625"/>
  <text stroke="#000" font-style="italic" font-weight="normal" xml:space="preserve" text-anchor="start" font-family="'Montserrat ExtraBold'" font-size="18" id="svg_42" y="68" x="55" stroke-width="0" fill="#7f5625">勾起你心中的餓</text>
  <text font-style="normal" font-weight="normal" xml:space="preserve" text-anchor="start" font-family="'Rounded Mplus 1c Black'" font-size="48" id="svg_43" y="283" x="68" stroke-width="0" stroke="#000" fill="#7f5625">呷麵起士</text>
  <path stroke="#000" id="svg_44" d="m26.86081,310.06778c-0.20471,-2.49433 0.39167,-5.08341 -0.60479,-7.51985c-1.62004,-5.35867 -5.20117,-10.06896 -6.81518,-15.41557c-0.69795,-3.58728 -1.8798,-7.42762 -0.48589,-10.98092c2.0157,-4.36547 5.34163,-8.34879 9.77931,-10.9876c2.48956,-1.46686 7.25582,0.38706 7.2668,-3.52487c0.78718,-4.46102 3.35434,-8.60508 6.62376,-12.01582c3.88162,-3.73502 10.425,-4.436 15.48783,-2.28899c2.86767,0.93195 5.85077,2.54579 6.48692,5.41007c-0.44342,2.82479 2.90356,4.78367 2.69746,7.37314c-3.03842,-0.00721 -5.95919,0.48144 -8.49741,2.13397c-1.78168,0.82975 -5.74721,1.29837 -2.8004,3.38776c2.7619,4.53144 2.69212,10.25218 0.0053,14.80552c-1.79056,3.54706 -4.08058,7.07674 -7.90424,9.18081c-2.9035,1.95328 -6.03576,3.6148 -9.27379,5.07905c-2.52666,2.38618 1.15757,5.82084 2.11019,8.29026c0.73102,0.75582 0.98296,2.31603 2.42453,1.94041c3.32115,0.05426 7.11802,-0.4123 9.77399,1.66778c-1.94315,1.76325 -5.62621,-0.30106 -8.26211,1.02482c-1.90775,1.22926 -4.14202,1.58793 -6.81461,1.61823c-2.87591,0.9184 -5.91686,-0.77158 -8.49242,0.35643c-0.89385,0.08804 -1.82148,0.72626 -2.70525,0.46537l0,0zm12.66376,-3.46106c-1.05213,-2.10851 -4.46257,0.33495 -1.32603,0.49714c0.50144,-0.10053 2.78386,0.64861 1.32603,-0.49714zm-3.87866,-0.92319c3.22209,-1.99322 1.6827,-5.43961 -0.38903,-7.60702c-0.70453,-0.63517 -1.02871,-1.90925 -1.98469,-2.12206c-1.46306,0 -2.92611,0 -4.38917,0c-1.01053,1.81296 -0.53973,3.81405 0.19384,5.64276c0.76279,2.32368 1.33912,6.10699 5.11946,4.91091c0.58243,-0.09818 1.06449,-0.44288 1.44959,-0.82459z" stroke-width="0" fill="#7f5625"/>
  <text stroke="#000" font-style="italic" font-weight="normal" xml:space="preserve" text-anchor="start" font-family="'Montserrat ExtraBold'" font-size="18" id="svg_45" y="307" x="68" stroke-width="0" fill="#7f5625">勾起你心中的餓</text>
  <text font-style="normal" font-weight="normal" xml:space="preserve" text-anchor="start" font-family="'Rounded Mplus 1c Black'" font-size="48" id="svg_46" y="420" x="61" stroke-width="0" stroke="#000" fill="#7f5625">呷麵起士</text>
  <path stroke="#000" id="svg_47" d="m19.86081,447.06778c-0.20471,-2.49433 0.39167,-5.08341 -0.60479,-7.51985c-1.62004,-5.35867 -5.20117,-10.06896 -6.81518,-15.41557c-0.69795,-3.58728 -1.8798,-7.42762 -0.48589,-10.98092c2.0157,-4.36547 5.34163,-8.34879 9.77931,-10.9876c2.48956,-1.46686 7.25582,0.38706 7.2668,-3.52487c0.78718,-4.46102 3.35434,-8.60508 6.62376,-12.01582c3.88162,-3.73502 10.425,-4.436 15.48783,-2.28899c2.86767,0.93195 5.85077,2.54579 6.48692,5.41007c-0.44342,2.82479 2.90356,4.78367 2.69746,7.37314c-3.03842,-0.00721 -5.95919,0.48144 -8.49741,2.13397c-1.78168,0.82975 -5.74721,1.29837 -2.8004,3.38776c2.7619,4.53144 2.69212,10.25218 0.0053,14.80552c-1.79056,3.54706 -4.08058,7.07674 -7.90424,9.18081c-2.9035,1.95328 -6.03576,3.6148 -9.27379,5.07905c-2.52666,2.38618 1.15757,5.82084 2.11019,8.29026c0.73102,0.75582 0.98296,2.31603 2.42453,1.94041c3.32115,0.05426 7.11802,-0.4123 9.77399,1.66778c-1.94315,1.76325 -5.62621,-0.30106 -8.26211,1.02482c-1.90775,1.22926 -4.14202,1.58793 -6.81461,1.61823c-2.87591,0.9184 -5.91686,-0.77158 -8.49242,0.35643c-0.89385,0.08804 -1.82148,0.72626 -2.70525,0.46537l0,0zm12.66376,-3.46106c-1.05213,-2.10851 -4.46257,0.33495 -1.32603,0.49714c0.50144,-0.10053 2.78386,0.64861 1.32603,-0.49714zm-3.87866,-0.92319c3.22209,-1.99322 1.6827,-5.43961 -0.38903,-7.60702c-0.70453,-0.63517 -1.02871,-1.90925 -1.98469,-2.12206c-1.46306,0 -2.92611,0 -4.38917,0c-1.01053,1.81296 -0.53973,3.81405 0.19384,5.64276c0.76279,2.32368 1.33912,6.10699 5.11946,4.91091c0.58243,-0.09818 1.06449,-0.44288 1.44959,-0.82459z" stroke-width="0" fill="#7f5625"/>
  <text stroke="#000" font-style="italic" font-weight="normal" xml:space="preserve" text-anchor="start" font-family="'Montserrat ExtraBold'" font-size="18" id="svg_48" y="444" x="61" stroke-width="0" fill="#7f5625">勾起你心中的餓</text>
  <text font-style="normal" font-weight="normal" xml:space="preserve" text-anchor="start" font-family="'Rounded Mplus 1c Black'" font-size="48" id="svg_49" y="558" x="63" stroke-width="0" stroke="#000" fill="#7f5625">呷麵起士</text>
  <path stroke="#000" id="svg_50" d="m21.86081,585.06778c-0.20471,-2.49433 0.39167,-5.08341 -0.60479,-7.51985c-1.62004,-5.35867 -5.20117,-10.06896 -6.81518,-15.41557c-0.69795,-3.58728 -1.8798,-7.42762 -0.48589,-10.98092c2.0157,-4.36547 5.34163,-8.34879 9.77931,-10.9876c2.48956,-1.46686 7.25582,0.38706 7.2668,-3.52487c0.78718,-4.46102 3.35434,-8.60508 6.62376,-12.01582c3.88162,-3.73502 10.425,-4.436 15.48783,-2.28899c2.86767,0.93195 5.85077,2.54579 6.48692,5.41007c-0.44342,2.82479 2.90356,4.78367 2.69746,7.37314c-3.03842,-0.00721 -5.95919,0.48144 -8.49741,2.13397c-1.78168,0.82975 -5.74721,1.29837 -2.8004,3.38776c2.7619,4.53144 2.69212,10.25218 0.0053,14.80552c-1.79056,3.54706 -4.08058,7.07674 -7.90424,9.18081c-2.9035,1.95328 -6.03576,3.6148 -9.27379,5.07905c-2.52666,2.38618 1.15757,5.82084 2.11019,8.29026c0.73102,0.75582 0.98296,2.31603 2.42453,1.94041c3.32115,0.05426 7.11802,-0.4123 9.77399,1.66778c-1.94315,1.76325 -5.62621,-0.30106 -8.26211,1.02482c-1.90775,1.22926 -4.14202,1.58793 -6.81461,1.61823c-2.87591,0.9184 -5.91686,-0.77158 -8.49242,0.35643c-0.89385,0.08804 -1.82148,0.72626 -2.70525,0.46537l0,0zm12.66376,-3.46106c-1.05213,-2.10851 -4.46257,0.33495 -1.32603,0.49714c0.50144,-0.10053 2.78386,0.64861 1.32603,-0.49714zm-3.87866,-0.92319c3.22209,-1.99322 1.6827,-5.43961 -0.38903,-7.60702c-0.70453,-0.63517 -1.02871,-1.90925 -1.98469,-2.12206c-1.46306,0 -2.92611,0 -4.38917,0c-1.01053,1.81296 -0.53973,3.81405 0.19384,5.64276c0.76279,2.32368 1.33912,6.10699 5.11946,4.91091c0.58243,-0.09818 1.06449,-0.44288 1.44959,-0.82459z" stroke-width="0" fill="#7f5625"/>
  <text stroke="#000" font-style="italic" font-weight="normal" xml:space="preserve" text-anchor="start" font-family="'Montserrat ExtraBold'" font-size="18" id="svg_51" y="582" x="63" stroke-width="0" fill="#7f5625">勾起你心中的餓</text>
 </g>

</svg>